<svg version="1.1" viewBox="0.0 0.0 396.2965879265092 393.8267716535433" fill="none" stroke="none" stroke-linecap="square" stroke-miterlimit="10" xmlns:xlink="http://www.w3.org/1999/xlink" xmlns="http://www.w3.org/2000/svg"><clipPath id="p.0"><path d="m0 0l396.2966 0l0 393.82678l-396.2966 0l0 -393.82678z" clip-rule="nonzero"/></clipPath><g clip-path="url(#p.0)"><path fill="#000000" fill-opacity="0.0" d="m0 0l396.2966 0l0 393.82678l-396.2966 0z" fill-rule="evenodd"/><path fill="#d9d9d9" d="m-0.001312336 9.606299l0 0c0 -5.305413 4.3008866 -9.606299 9.606299 -9.606299l0 0c2.5477486 0 4.991149 1.0120894 6.79268 2.8136199c1.8015289 1.8015306 2.8136196 4.2449303 2.8136196 6.79268l0 0c0 5.3054123 -4.300887 9.606299 -9.606299 9.606299l0 0c-5.305413 0 -9.606299 -4.300887 -9.606299 -9.606299z" fill-rule="evenodd"/><path fill="#d9d9d9" d="m-0.001312336 38.262466l0 0c0 -5.3054123 4.3008866 -9.606298 9.606299 -9.606298l0 0c2.5477486 0 4.991149 1.0120888 6.79268 2.8136196c1.8015289 1.8015327 2.8136196 4.2449303 2.8136196 6.792679l0 0c0 5.3054123 -4.300887 9.6063 -9.606299 9.6063l0 0c-5.305413 0 -9.606299 -4.300888 -9.606299 -9.6063z" fill-rule="evenodd"/><path fill="#d9d9d9" d="m28.864304 9.606299l0 0c0 -5.305413 4.300888 -9.606299 9.6063 -9.606299l0 0c2.5477486 0 4.99115 1.0120894 6.792679 2.8136199c1.8015289 1.8015306 2.8136215 4.2449303 2.8136215 6.79268l0 0c0 5.3054123 -4.300888 9.606299 -9.6063 9.606299l0 0c-5.3054123 0 -9.6063 -4.300887 -9.6063 -9.606299z" fill-rule="evenodd"/><path fill="#d9d9d9" d="m28.86483 38.262466l0 0c0 -5.3054123 4.3008842 -9.606298 9.6063 -9.606298l0 0c2.5477486 0 4.991146 1.0120888 6.792679 2.8136196c1.8015289 1.8015327 2.8136177 4.2449303 2.8136177 6.792679l0 0c0 5.3054123 -4.3008842 9.6063 -9.606297 9.6063l0 0c-5.305416 0 -9.6063 -4.300888 -9.6063 -9.6063z" fill-rule="evenodd"/><path fill="#d9d9d9" d="m-0.001312336 66.91863l0 0c0 -5.3054085 4.3008866 -9.606297 9.606299 -9.606297l0 0c2.5477486 0 4.991149 1.0120888 6.79268 2.8136215c1.8015289 1.8015289 2.8136196 4.2449303 2.8136196 6.792675l0 0c0 5.3054123 -4.300887 9.6063 -9.606299 9.6063l0 0c-5.305413 0 -9.606299 -4.300888 -9.606299 -9.6063z" fill-rule="evenodd"/><path fill="#d9d9d9" d="m-0.001312336 95.57481l0 0c0 -5.3054123 4.3008866 -9.6063 9.606299 -9.6063l0 0c2.5477486 0 4.991149 1.012085 6.79268 2.8136215c1.8015289 1.8015289 2.8136196 4.2449265 2.8136196 6.792679l0 0c0 5.3054123 -4.300887 9.606293 -9.606299 9.606293l0 0c-5.305413 0 -9.606299 -4.3008804 -9.606299 -9.606293z" fill-rule="evenodd"/><path fill="#d9d9d9" d="m28.864304 66.91863l0 0c0 -5.3054085 4.300888 -9.606297 9.6063 -9.606297l0 0c2.5477486 0 4.99115 1.0120888 6.792679 2.8136215c1.8015289 1.8015289 2.8136215 4.2449303 2.8136215 6.792675l0 0c0 5.3054123 -4.300888 9.6063 -9.6063 9.6063l0 0c-5.3054123 0 -9.6063 -4.300888 -9.6063 -9.6063z" fill-rule="evenodd"/><path fill="#d9d9d9" d="m28.86483 95.57481l0 0c0 -5.3054123 4.3008842 -9.6063 9.6063 -9.6063l0 0c2.5477486 0 4.991146 1.012085 6.792679 2.8136215c1.8015289 1.8015289 2.8136177 4.2449265 2.8136177 6.792679l0 0c0 5.3054123 -4.3008842 9.606293 -9.606297 9.606293l0 0c-5.305416 0 -9.6063 -4.3008804 -9.6063 -9.606293z" fill-rule="evenodd"/><path fill="#d9d9d9" d="m57.730972 9.606299l0 0c0 -5.305413 4.3008842 -9.606299 9.6063 -9.606299l0 0c2.5477448 0 4.99115 1.0120894 6.792679 2.8136199c1.8015289 1.8015306 2.8136215 4.2449303 2.8136215 6.79268l0 0c0 5.3054123 -4.300888 9.606299 -9.6063 9.606299l0 0c-5.305416 0 -9.6063 -4.300887 -9.6063 -9.606299z" fill-rule="evenodd"/><path fill="#d9d9d9" d="m57.730972 38.262466l0 0c0 -5.3054123 4.3008842 -9.606298 9.6063 -9.606298l0 0c2.5477448 0 4.99115 1.0120888 6.792679 2.8136196c1.8015289 1.8015327 2.8136215 4.2449303 2.8136215 6.792679l0 0c0 5.3054123 -4.300888 9.6063 -9.6063 9.6063l0 0c-5.305416 0 -9.6063 -4.300888 -9.6063 -9.6063z" fill-rule="evenodd"/><path fill="#d9d9d9" d="m86.59659 9.606299l0 0c0 -5.305413 4.300888 -9.606299 9.6063 -9.606299l0 0c2.5477448 0 4.99115 1.0120894 6.792679 2.8136199c1.8015289 1.8015306 2.8136215 4.2449303 2.8136215 6.79268l0 0c0 5.3054123 -4.300888 9.606299 -9.6063 9.606299l0 0c-5.3054123 0 -9.6063 -4.300887 -9.6063 -9.606299z" fill-rule="evenodd"/><path fill="#d9d9d9" d="m86.597115 38.262466l0 0c0 -5.3054123 4.300888 -9.606298 9.6063 -9.606298l0 0c2.5477448 0 4.9911423 1.0120888 6.792679 2.8136196c1.8015289 1.8015327 2.813614 4.2449303 2.813614 6.792679l0 0c0 5.3054123 -4.3008804 9.6063 -9.606293 9.6063l0 0c-5.3054123 0 -9.6063 -4.300888 -9.6063 -9.6063z" fill-rule="evenodd"/><path fill="#d9d9d9" d="m57.730972 66.91863l0 0c0 -5.3054085 4.3008842 -9.606297 9.6063 -9.606297l0 0c2.5477448 0 4.99115 1.0120888 6.792679 2.8136215c1.8015289 1.8015289 2.8136215 4.2449303 2.8136215 6.792675l0 0c0 5.3054123 -4.300888 9.6063 -9.6063 9.6063l0 0c-5.305416 0 -9.6063 -4.300888 -9.6063 -9.6063z" fill-rule="evenodd"/><path fill="#d9d9d9" d="m57.730972 95.57481l0 0c0 -5.3054123 4.3008842 -9.6063 9.6063 -9.6063l0 0c2.5477448 0 4.99115 1.012085 6.792679 2.8136215c1.8015289 1.8015289 2.8136215 4.2449265 2.8136215 6.792679l0 0c0 5.3054123 -4.300888 9.606293 -9.6063 9.606293l0 0c-5.305416 0 -9.6063 -4.3008804 -9.6063 -9.606293z" fill-rule="evenodd"/><path fill="#d9d9d9" d="m86.59659 66.91863l0 0c0 -5.3054085 4.300888 -9.606297 9.6063 -9.606297l0 0c2.5477448 0 4.99115 1.0120888 6.792679 2.8136215c1.8015289 1.8015289 2.8136215 4.2449303 2.8136215 6.792675l0 0c0 5.3054123 -4.300888 9.6063 -9.6063 9.6063l0 0c-5.3054123 0 -9.6063 -4.300888 -9.6063 -9.6063z" fill-rule="evenodd"/><path fill="#365cae" d="m86.597115 95.57481l0 0c0 -5.3054123 4.300888 -9.6063 9.6063 -9.6063l0 0c2.5477448 0 4.9911423 1.012085 6.792679 2.8136215c1.8015289 1.8015289 2.813614 4.2449265 2.813614 6.792679l0 0c0 5.3054123 -4.3008804 9.606293 -9.606293 9.606293l0 0c-5.3054123 0 -9.6063 -4.3008804 -9.6063 -9.606293z" fill-rule="evenodd"/><path fill="#d9d9d9" d="m115.46326 9.606299l0 0c0 -5.305413 4.300888 -9.606299 9.6063 -9.606299l0 0c2.5477448 0 4.9911423 1.0120894 6.792671 2.8136199c1.8015289 1.8015306 2.8136292 4.2449303 2.8136292 6.79268l0 0c0 5.3054123 -4.300888 9.606299 -9.6063 9.606299l0 0c-5.3054123 0 -9.6063 -4.300887 -9.6063 -9.606299z" fill-rule="evenodd"/><path fill="#d9d9d9" d="m115.46326 38.262466l0 0c0 -5.3054123 4.300888 -9.606298 9.6063 -9.606298l0 0c2.5477448 0 4.9911423 1.0120888 6.792671 2.8136196c1.8015289 1.8015327 2.8136292 4.2449303 2.8136292 6.792679l0 0c0 5.3054123 -4.300888 9.6063 -9.6063 9.6063l0 0c-5.3054123 0 -9.6063 -4.300888 -9.6063 -9.6063z" fill-rule="evenodd"/><path fill="#d9d9d9" d="m144.32887 9.606299l0 0c0 -5.305413 4.300888 -9.606299 9.606293 -9.606299l0 0c2.54776 0 4.99115 1.0120894 6.792679 2.8136199c1.8015289 1.8015306 2.8136292 4.2449303 2.8136292 6.79268l0 0c0 5.3054123 -4.300888 9.606299 -9.606308 9.606299l0 0c-5.3054047 0 -9.606293 -4.300887 -9.606293 -9.606299z" fill-rule="evenodd"/><path fill="#365cae" d="m144.32939 38.262466l0 0c0 -5.3054123 4.300888 -9.606298 9.606308 -9.606298l0 0c2.5477448 0 4.99115 1.0120888 6.792679 2.8136196c1.8015289 1.8015327 2.813614 4.2449303 2.813614 6.792679l0 0c0 5.3054123 -4.300888 9.6063 -9.606293 9.6063l0 0c-5.30542 0 -9.606308 -4.300888 -9.606308 -9.6063z" fill-rule="evenodd"/><path fill="#365cae" d="m115.46326 66.91863l0 0c0 -5.3054085 4.300888 -9.606297 9.6063 -9.606297l0 0c2.5477448 0 4.9911423 1.0120888 6.792671 2.8136215c1.8015289 1.8015289 2.8136292 4.2449303 2.8136292 6.792675l0 0c0 5.3054123 -4.300888 9.6063 -9.6063 9.6063l0 0c-5.3054123 0 -9.6063 -4.300888 -9.6063 -9.6063z" fill-rule="evenodd"/><path fill="#365cae" d="m115.46326 95.57481l0 0c0 -5.3054123 4.300888 -9.6063 9.6063 -9.6063l0 0c2.5477448 0 4.9911423 1.012085 6.792671 2.8136215c1.8015289 1.8015289 2.8136292 4.2449265 2.8136292 6.792679l0 0c0 5.3054123 -4.300888 9.606293 -9.6063 9.606293l0 0c-5.3054123 0 -9.6063 -4.3008804 -9.6063 -9.606293z" fill-rule="evenodd"/><path fill="#365cae" d="m144.32887 66.91863l0 0c0 -5.3054085 4.300888 -9.606297 9.606293 -9.606297l0 0c2.54776 0 4.99115 1.0120888 6.792679 2.8136215c1.8015289 1.8015289 2.8136292 4.2449303 2.8136292 6.792675l0 0c0 5.3054123 -4.300888 9.6063 -9.606308 9.6063l0 0c-5.3054047 0 -9.606293 -4.300888 -9.606293 -9.6063z" fill-rule="evenodd"/><path fill="#365cae" d="m144.32939 95.57481l0 0c0 -5.3054123 4.300888 -9.6063 9.606308 -9.6063l0 0c2.5477448 0 4.99115 1.012085 6.792679 2.8136215c1.8015289 1.8015289 2.813614 4.2449265 2.813614 6.792679l0 0c0 5.3054123 -4.300888 9.606293 -9.606293 9.606293l0 0c-5.30542 0 -9.606308 -4.3008804 -9.606308 -9.606293z" fill-rule="evenodd"/><path fill="#d9d9d9" d="m173.19554 9.606299l0 0c0 -5.305413 4.300888 -9.606299 9.606293 -9.606299l0 0c2.5477448 0 4.99115 1.0120894 6.792679 2.8136199c1.8015289 1.8015306 2.8136292 4.2449303 2.8136292 6.79268l0 0c0 5.3054123 -4.300888 9.606299 -9.606308 9.606299l0 0c-5.3054047 0 -9.606293 -4.300887 -9.606293 -9.606299z" fill-rule="evenodd"/><path fill="#365cae" d="m173.19554 38.262466l0 0c0 -5.3054123 4.300888 -9.606298 9.606293 -9.606298l0 0c2.5477448 0 4.99115 1.0120888 6.792679 2.8136196c1.8015289 1.8015327 2.8136292 4.2449303 2.8136292 6.792679l0 0c0 5.3054123 -4.300888 9.6063 -9.606308 9.6063l0 0c-5.3054047 0 -9.606293 -4.300888 -9.606293 -9.6063z" fill-rule="evenodd"/><path fill="#d9d9d9" d="m202.06116 9.606299l0 0c0 -5.305413 4.300888 -9.606299 9.606293 -9.606299l0 0c2.54776 0 4.99115 1.0120894 6.792679 2.8136199c1.8015289 1.8015306 2.8136292 4.2449303 2.8136292 6.79268l0 0c0 5.3054123 -4.300888 9.606299 -9.606308 9.606299l0 0c-5.3054047 0 -9.606293 -4.300887 -9.606293 -9.606299z" fill-rule="evenodd"/><path fill="#365cae" d="m202.06168 38.262466l0 0c0 -5.3054123 4.300888 -9.606298 9.606308 -9.606298l0 0c2.5477448 0 4.99115 1.0120888 6.792679 2.8136196c1.8015289 1.8015327 2.813614 4.2449303 2.813614 6.792679l0 0c0 5.3054123 -4.300888 9.6063 -9.606293 9.6063l0 0c-5.30542 0 -9.606308 -4.300888 -9.606308 -9.6063z" fill-rule="evenodd"/><path fill="#365cae" d="m173.19554 66.91863l0 0c0 -5.3054085 4.300888 -9.606297 9.606293 -9.606297l0 0c2.5477448 0 4.99115 1.0120888 6.792679 2.8136215c1.8015289 1.8015289 2.8136292 4.2449303 2.8136292 6.792675l0 0c0 5.3054123 -4.300888 9.6063 -9.606308 9.6063l0 0c-5.3054047 0 -9.606293 -4.300888 -9.606293 -9.6063z" fill-rule="evenodd"/><path fill="#365cae" d="m173.19554 95.57481l0 0c0 -5.3054123 4.300888 -9.6063 9.606293 -9.6063l0 0c2.5477448 0 4.99115 1.012085 6.792679 2.8136215c1.8015289 1.8015289 2.8136292 4.2449265 2.8136292 6.792679l0 0c0 5.3054123 -4.300888 9.606293 -9.606308 9.606293l0 0c-5.3054047 0 -9.606293 -4.3008804 -9.606293 -9.606293z" fill-rule="evenodd"/><path fill="#365cae" d="m202.06116 66.91863l0 0c0 -5.3054085 4.300888 -9.606297 9.606293 -9.606297l0 0c2.54776 0 4.99115 1.0120888 6.792679 2.8136215c1.8015289 1.8015289 2.8136292 4.2449303 2.8136292 6.792675l0 0c0 5.3054123 -4.300888 9.6063 -9.606308 9.6063l0 0c-5.3054047 0 -9.606293 -4.300888 -9.606293 -9.6063z" fill-rule="evenodd"/><path fill="#365cae" d="m202.06168 95.57481l0 0c0 -5.3054123 4.300888 -9.6063 9.606308 -9.6063l0 0c2.5477448 0 4.99115 1.012085 6.792679 2.8136215c1.8015289 1.8015289 2.813614 4.2449265 2.813614 6.792679l0 0c0 5.3054123 -4.300888 9.606293 -9.606293 9.606293l0 0c-5.30542 0 -9.606308 -4.3008804 -9.606308 -9.606293z" fill-rule="evenodd"/><path fill="#d9d9d9" d="m230.92783 9.606299l0 0c0 -5.305413 4.300888 -9.606299 9.606293 -9.606299l0 0c2.5477448 0 4.99115 1.0120894 6.792679 2.8136199c1.8015289 1.8015306 2.8136292 4.2449303 2.8136292 6.79268l0 0c0 5.3054123 -4.300888 9.606299 -9.606308 9.606299l0 0c-5.3054047 0 -9.606293 -4.300887 -9.606293 -9.606299z" fill-rule="evenodd"/><path fill="#365cae" d="m230.92783 38.262466l0 0c0 -5.3054123 4.300888 -9.606298 9.606293 -9.606298l0 0c2.5477448 0 4.99115 1.0120888 6.792679 2.8136196c1.8015289 1.8015327 2.8136292 4.2449303 2.8136292 6.792679l0 0c0 5.3054123 -4.300888 9.6063 -9.606308 9.6063l0 0c-5.3054047 0 -9.606293 -4.300888 -9.606293 -9.6063z" fill-rule="evenodd"/><path fill="#d9d9d9" d="m259.79343 9.606299l0 0c0 -5.305413 4.3009033 -9.606299 9.606323 -9.606299l0 0c2.5477295 0 4.99115 1.0120894 6.7926636 2.8136199c1.8015442 1.8015306 2.8136292 4.2449303 2.8136292 6.79268l0 0c0 5.3054123 -4.3009033 9.606299 -9.606293 9.606299l0 0c-5.30542 0 -9.606323 -4.300887 -9.606323 -9.606299z" fill-rule="evenodd"/><path fill="#365cae" d="m259.79398 38.262466l0 0c0 -5.3054123 4.300873 -9.606298 9.606293 -9.606298l0 0c2.5477295 0 4.99115 1.0120888 6.7926636 2.8136196c1.8015442 1.8015327 2.8136292 4.2449303 2.8136292 6.792679l0 0c0 5.3054123 -4.300873 9.6063 -9.606293 9.6063l0 0c-5.30542 0 -9.606293 -4.300888 -9.606293 -9.6063z" fill-rule="evenodd"/><path fill="#365cae" d="m230.92783 66.91863l0 0c0 -5.3054085 4.300888 -9.606297 9.606293 -9.606297l0 0c2.5477448 0 4.99115 1.0120888 6.792679 2.8136215c1.8015289 1.8015289 2.8136292 4.2449303 2.8136292 6.792675l0 0c0 5.3054123 -4.300888 9.6063 -9.606308 9.6063l0 0c-5.3054047 0 -9.606293 -4.300888 -9.606293 -9.6063z" fill-rule="evenodd"/><path fill="#365cae" d="m230.92783 95.57481l0 0c0 -5.3054123 4.300888 -9.6063 9.606293 -9.6063l0 0c2.5477448 0 4.99115 1.012085 6.792679 2.8136215c1.8015289 1.8015289 2.8136292 4.2449265 2.8136292 6.792679l0 0c0 5.3054123 -4.300888 9.606293 -9.606308 9.606293l0 0c-5.3054047 0 -9.606293 -4.3008804 -9.606293 -9.606293z" fill-rule="evenodd"/><path fill="#365cae" d="m259.79343 66.91863l0 0c0 -5.3054085 4.3009033 -9.606297 9.606323 -9.606297l0 0c2.5477295 0 4.99115 1.0120888 6.7926636 2.8136215c1.8015442 1.8015289 2.8136292 4.2449303 2.8136292 6.792675l0 0c0 5.3054123 -4.3009033 9.6063 -9.606293 9.6063l0 0c-5.30542 0 -9.606323 -4.300888 -9.606323 -9.6063z" fill-rule="evenodd"/><path fill="#365cae" d="m259.79398 95.57481l0 0c0 -5.3054123 4.300873 -9.6063 9.606293 -9.6063l0 0c2.5477295 0 4.99115 1.012085 6.7926636 2.8136215c1.8015442 1.8015289 2.8136292 4.2449265 2.8136292 6.792679l0 0c0 5.3054123 -4.300873 9.606293 -9.606293 9.606293l0 0c-5.30542 0 -9.606293 -4.3008804 -9.606293 -9.606293z" fill-rule="evenodd"/><path fill="#d9d9d9" d="m288.6601 9.606299l0 0c0 -5.305413 4.3009033 -9.606299 9.606323 -9.606299l0 0c2.5477295 0 4.9911194 1.0120894 6.7926636 2.8136199c1.8015442 1.8015306 2.8136292 4.2449303 2.8136292 6.79268l0 0c0 5.3054123 -4.3009033 9.606299 -9.606293 9.606299l0 0c-5.30542 0 -9.606323 -4.300887 -9.606323 -9.606299z" fill-rule="evenodd"/><path fill="#d9d9d9" d="m288.6601 38.262466l0 0c0 -5.3054123 4.3009033 -9.606298 9.606323 -9.606298l0 0c2.5477295 0 4.9911194 1.0120888 6.7926636 2.8136196c1.8015442 1.8015327 2.8136292 4.2449303 2.8136292 6.792679l0 0c0 5.3054123 -4.3009033 9.6063 -9.606293 9.6063l0 0c-5.30542 0 -9.606323 -4.300888 -9.606323 -9.6063z" fill-rule="evenodd"/><path fill="#d9d9d9" d="m317.52573 9.606299l0 0c0 -5.305413 4.300873 -9.606299 9.606293 -9.606299l0 0c2.54776 0 4.99115 1.0120894 6.792694 2.8136199c1.8015137 1.8015306 2.8135986 4.2449303 2.8135986 6.79268l0 0c0 5.3054123 -4.300873 9.606299 -9.606293 9.606299l0 0c-5.30542 0 -9.606293 -4.300887 -9.606293 -9.606299z" fill-rule="evenodd"/><path fill="#d9d9d9" d="m317.52625 38.262466l0 0c0 -5.3054123 4.3009033 -9.606298 9.606293 -9.606298l0 0c2.54776 0 4.99115 1.0120888 6.792694 2.8136196c1.8015137 1.8015327 2.8135986 4.2449303 2.8135986 6.792679l0 0c0 5.3054123 -4.300873 9.6063 -9.606293 9.6063l0 0c-5.3053894 0 -9.606293 -4.300888 -9.606293 -9.6063z" fill-rule="evenodd"/><path fill="#365cae" d="m288.6601 66.91863l0 0c0 -5.3054085 4.3009033 -9.606297 9.606323 -9.606297l0 0c2.5477295 0 4.9911194 1.0120888 6.7926636 2.8136215c1.8015442 1.8015289 2.8136292 4.2449303 2.8136292 6.792675l0 0c0 5.3054123 -4.3009033 9.6063 -9.606293 9.6063l0 0c-5.30542 0 -9.606323 -4.300888 -9.606323 -9.6063z" fill-rule="evenodd"/><path fill="#365cae" d="m288.6601 95.57481l0 0c0 -5.3054123 4.3009033 -9.6063 9.606323 -9.6063l0 0c2.5477295 0 4.9911194 1.012085 6.7926636 2.8136215c1.8015442 1.8015289 2.8136292 4.2449265 2.8136292 6.792679l0 0c0 5.3054123 -4.3009033 9.606293 -9.606293 9.606293l0 0c-5.30542 0 -9.606323 -4.3008804 -9.606323 -9.606293z" fill-rule="evenodd"/><path fill="#d9d9d9" d="m317.52573 66.91863l0 0c0 -5.3054085 4.300873 -9.606297 9.606293 -9.606297l0 0c2.54776 0 4.99115 1.0120888 6.792694 2.8136215c1.8015137 1.8015289 2.8135986 4.2449303 2.8135986 6.792675l0 0c0 5.3054123 -4.300873 9.6063 -9.606293 9.6063l0 0c-5.30542 0 -9.606293 -4.300888 -9.606293 -9.6063z" fill-rule="evenodd"/><path fill="#365cae" d="m317.52625 95.57481l0 0c0 -5.3054123 4.3009033 -9.6063 9.606293 -9.6063l0 0c2.54776 0 4.99115 1.012085 6.792694 2.8136215c1.8015137 1.8015289 2.8135986 4.2449265 2.8135986 6.792679l0 0c0 5.3054123 -4.300873 9.606293 -9.606293 9.606293l0 0c-5.3053894 0 -9.606293 -4.3008804 -9.606293 -9.606293z" fill-rule="evenodd"/><path fill="#d9d9d9" d="m346.3924 9.606299l0 0c0 -5.305413 4.300873 -9.606299 9.606293 -9.606299l0 0c2.54776 0 4.99115 1.0120894 6.792694 2.8136199c1.8015137 1.8015306 2.8135986 4.2449303 2.8135986 6.79268l0 0c0 5.3054123 -4.300873 9.606299 -9.606293 9.606299l0 0c-5.30542 0 -9.606293 -4.300887 -9.606293 -9.606299z" fill-rule="evenodd"/><path fill="#d9d9d9" d="m346.3924 38.262466l0 0c0 -5.3054123 4.300873 -9.606298 9.606293 -9.606298l0 0c2.54776 0 4.99115 1.0120888 6.792694 2.8136196c1.8015137 1.8015327 2.8135986 4.2449303 2.8135986 6.792679l0 0c0 5.3054123 -4.300873 9.6063 -9.606293 9.6063l0 0c-5.30542 0 -9.606293 -4.300888 -9.606293 -9.6063z" fill-rule="evenodd"/><path fill="#d9d9d9" d="m375.258 9.606299l0 0c0 -5.305413 4.3009033 -9.606299 9.606323 -9.606299l0 0c2.5477295 0 4.9911194 1.0120894 6.7926636 2.8136199c1.8015442 1.8015306 2.8136292 4.2449303 2.8136292 6.79268l0 0c0 5.3054123 -4.3009033 9.606299 -9.606293 9.606299l0 0c-5.30542 0 -9.606323 -4.300887 -9.606323 -9.606299z" fill-rule="evenodd"/><path fill="#d9d9d9" d="m375.25854 38.262466l0 0c0 -5.3054123 4.300873 -9.606298 9.606293 -9.606298l0 0c2.5477295 0 4.99115 1.0120888 6.7926636 2.8136196c1.8015442 1.8015327 2.8136292 4.2449303 2.8136292 6.792679l0 0c0 5.3054123 -4.3009033 9.6063 -9.606293 9.6063l0 0c-5.30542 0 -9.606293 -4.300888 -9.606293 -9.6063z" fill-rule="evenodd"/><path fill="#d9d9d9" d="m346.3924 66.91863l0 0c0 -5.3054085 4.300873 -9.606297 9.606293 -9.606297l0 0c2.54776 0 4.99115 1.0120888 6.792694 2.8136215c1.8015137 1.8015289 2.8135986 4.2449303 2.8135986 6.792675l0 0c0 5.3054123 -4.300873 9.6063 -9.606293 9.6063l0 0c-5.30542 0 -9.606293 -4.300888 -9.606293 -9.6063z" fill-rule="evenodd"/><path fill="#d9d9d9" d="m346.3924 95.57481l0 0c0 -5.3054123 4.300873 -9.6063 9.606293 -9.6063l0 0c2.54776 0 4.99115 1.012085 6.792694 2.8136215c1.8015137 1.8015289 2.8135986 4.2449265 2.8135986 6.792679l0 0c0 5.3054123 -4.300873 9.606293 -9.606293 9.606293l0 0c-5.30542 0 -9.606293 -4.3008804 -9.606293 -9.606293z" fill-rule="evenodd"/><path fill="#d9d9d9" d="m375.258 66.91863l0 0c0 -5.3054085 4.3009033 -9.606297 9.606323 -9.606297l0 0c2.5477295 0 4.9911194 1.0120888 6.7926636 2.8136215c1.8015442 1.8015289 2.8136292 4.2449303 2.8136292 6.792675l0 0c0 5.3054123 -4.3009033 9.6063 -9.606293 9.6063l0 0c-5.30542 0 -9.606323 -4.300888 -9.606323 -9.6063z" fill-rule="evenodd"/><path fill="#d9d9d9" d="m375.25854 95.57481l0 0c0 -5.3054123 4.300873 -9.6063 9.606293 -9.6063l0 0c2.5477295 0 4.99115 1.012085 6.7926636 2.8136215c1.8015442 1.8015289 2.8136292 4.2449265 2.8136292 6.792679l0 0c0 5.3054123 -4.3009033 9.606293 -9.606293 9.606293l0 0c-5.30542 0 -9.606293 -4.3008804 -9.606293 -9.606293z" fill-rule="evenodd"/><path fill="#d9d9d9" d="m-0.001312336 124.23097l0 0c0 -5.3054123 4.3008866 -9.6063 9.606299 -9.6063l0 0c2.5477486 0 4.991149 1.0120926 6.79268 2.8136215c1.8015289 1.8015289 2.8136196 4.2449265 2.8136196 6.792679l0 0c0 5.3054047 -4.300887 9.606293 -9.606299 9.606293l0 0c-5.305413 0 -9.606299 -4.300888 -9.606299 -9.606293z" fill-rule="evenodd"/><path fill="#d9d9d9" d="m-0.001312336 152.88715l0 0c0 -5.30542 4.3008866 -9.606308 9.606299 -9.606308l0 0c2.5477486 0 4.991149 1.012085 6.79268 2.8136292c1.8015289 1.8015289 2.8136196 4.244919 2.8136196 6.792679l0 0c0 5.3054047 -4.300887 9.606293 -9.606299 9.606293l0 0c-5.305413 0 -9.606299 -4.300888 -9.606299 -9.606293z" fill-rule="evenodd"/><path fill="#d9d9d9" d="m28.864304 124.23097l0 0c0 -5.3054123 4.300888 -9.6063 9.6063 -9.6063l0 0c2.5477486 0 4.99115 1.0120926 6.792679 2.8136215c1.8015289 1.8015289 2.8136215 4.2449265 2.8136215 6.792679l0 0c0 5.3054047 -4.300888 9.606293 -9.6063 9.606293l0 0c-5.3054123 0 -9.6063 -4.300888 -9.6063 -9.606293z" fill-rule="evenodd"/><path fill="#d9d9d9" d="m28.86483 152.88715l0 0c0 -5.30542 4.3008842 -9.606308 9.6063 -9.606308l0 0c2.5477486 0 4.991146 1.012085 6.792679 2.8136292c1.8015289 1.8015289 2.8136177 4.244919 2.8136177 6.792679l0 0c0 5.3054047 -4.3008842 9.606293 -9.606297 9.606293l0 0c-5.305416 0 -9.6063 -4.300888 -9.6063 -9.606293z" fill-rule="evenodd"/><path fill="#d9d9d9" d="m-0.001312336 181.5433l0 0c0 -5.3054047 4.3008866 -9.606293 9.606299 -9.606293l0 0c2.5477486 0 4.991149 1.012085 6.79268 2.813614c1.8015289 1.8015289 2.8136196 4.244934 2.8136196 6.792679l0 0c0 5.30542 -4.300887 9.606308 -9.606299 9.606308l0 0c-5.305413 0 -9.606299 -4.300888 -9.606299 -9.606308z" fill-rule="evenodd"/><path fill="#d9d9d9" d="m28.864304 181.5433l0 0c0 -5.3054047 4.300888 -9.606293 9.6063 -9.606293l0 0c2.5477486 0 4.99115 1.012085 6.792679 2.813614c1.8015289 1.8015289 2.8136215 4.244934 2.8136215 6.792679l0 0c0 5.30542 -4.300888 9.606308 -9.6063 9.606308l0 0c-5.3054123 0 -9.6063 -4.300888 -9.6063 -9.606308z" fill-rule="evenodd"/><path fill="#365cae" d="m57.730972 124.23097l0 0c0 -5.3054123 4.3008842 -9.6063 9.6063 -9.6063l0 0c2.5477448 0 4.99115 1.0120926 6.792679 2.8136215c1.8015289 1.8015289 2.8136215 4.2449265 2.8136215 6.792679l0 0c0 5.3054047 -4.300888 9.606293 -9.6063 9.606293l0 0c-5.305416 0 -9.6063 -4.300888 -9.6063 -9.606293z" fill-rule="evenodd"/><path fill="#365cae" d="m57.730972 152.88715l0 0c0 -5.30542 4.3008842 -9.606308 9.6063 -9.606308l0 0c2.5477448 0 4.99115 1.012085 6.792679 2.8136292c1.8015289 1.8015289 2.8136215 4.244919 2.8136215 6.792679l0 0c0 5.3054047 -4.300888 9.606293 -9.6063 9.606293l0 0c-5.305416 0 -9.6063 -4.300888 -9.6063 -9.606293z" fill-rule="evenodd"/><path fill="#365cae" d="m86.59659 124.23097l0 0c0 -5.3054123 4.300888 -9.6063 9.6063 -9.6063l0 0c2.5477448 0 4.99115 1.0120926 6.792679 2.8136215c1.8015289 1.8015289 2.8136215 4.2449265 2.8136215 6.792679l0 0c0 5.3054047 -4.300888 9.606293 -9.6063 9.606293l0 0c-5.3054123 0 -9.6063 -4.300888 -9.6063 -9.606293z" fill-rule="evenodd"/><path fill="#365cae" d="m86.597115 152.88715l0 0c0 -5.30542 4.300888 -9.606308 9.6063 -9.606308l0 0c2.5477448 0 4.9911423 1.012085 6.792679 2.8136292c1.8015289 1.8015289 2.813614 4.244919 2.813614 6.792679l0 0c0 5.3054047 -4.3008804 9.606293 -9.606293 9.606293l0 0c-5.3054123 0 -9.6063 -4.300888 -9.6063 -9.606293z" fill-rule="evenodd"/><path fill="#365cae" d="m57.730972 181.5433l0 0c0 -5.3054047 4.3008842 -9.606293 9.6063 -9.606293l0 0c2.5477448 0 4.99115 1.012085 6.792679 2.813614c1.8015289 1.8015289 2.8136215 4.244934 2.8136215 6.792679l0 0c0 5.30542 -4.300888 9.606308 -9.6063 9.606308l0 0c-5.305416 0 -9.6063 -4.300888 -9.6063 -9.606308z" fill-rule="evenodd"/><path fill="#365cae" d="m86.59659 181.5433l0 0c0 -5.3054047 4.300888 -9.606293 9.6063 -9.606293l0 0c2.5477448 0 4.99115 1.012085 6.792679 2.813614c1.8015289 1.8015289 2.8136215 4.244934 2.8136215 6.792679l0 0c0 5.30542 -4.300888 9.606308 -9.6063 9.606308l0 0c-5.3054123 0 -9.6063 -4.300888 -9.6063 -9.606308z" fill-rule="evenodd"/><path fill="#365cae" d="m115.46326 124.23097l0 0c0 -5.3054123 4.300888 -9.6063 9.6063 -9.6063l0 0c2.5477448 0 4.9911423 1.0120926 6.792671 2.8136215c1.8015289 1.8015289 2.8136292 4.2449265 2.8136292 6.792679l0 0c0 5.3054047 -4.300888 9.606293 -9.6063 9.606293l0 0c-5.3054123 0 -9.6063 -4.300888 -9.6063 -9.606293z" fill-rule="evenodd"/><path fill="#365cae" d="m115.46326 152.88715l0 0c0 -5.30542 4.300888 -9.606308 9.6063 -9.606308l0 0c2.5477448 0 4.9911423 1.012085 6.792671 2.8136292c1.8015289 1.8015289 2.8136292 4.244919 2.8136292 6.792679l0 0c0 5.3054047 -4.300888 9.606293 -9.6063 9.606293l0 0c-5.3054123 0 -9.6063 -4.300888 -9.6063 -9.606293z" fill-rule="evenodd"/><path fill="#d9d9d9" d="m144.32887 124.23097l0 0c0 -5.3054123 4.300888 -9.6063 9.606293 -9.6063l0 0c2.54776 0 4.99115 1.0120926 6.792679 2.8136215c1.8015289 1.8015289 2.8136292 4.2449265 2.8136292 6.792679l0 0c0 5.3054047 -4.300888 9.606293 -9.606308 9.606293l0 0c-5.3054047 0 -9.606293 -4.300888 -9.606293 -9.606293z" fill-rule="evenodd"/><path fill="#d9d9d9" d="m144.32939 152.88715l0 0c0 -5.30542 4.300888 -9.606308 9.606308 -9.606308l0 0c2.5477448 0 4.99115 1.012085 6.792679 2.8136292c1.8015289 1.8015289 2.813614 4.244919 2.813614 6.792679l0 0c0 5.3054047 -4.300888 9.606293 -9.606293 9.606293l0 0c-5.30542 0 -9.606308 -4.300888 -9.606308 -9.606293z" fill-rule="evenodd"/><path fill="#365cae" d="m115.46326 181.5433l0 0c0 -5.3054047 4.300888 -9.606293 9.6063 -9.606293l0 0c2.5477448 0 4.9911423 1.012085 6.792671 2.813614c1.8015289 1.8015289 2.8136292 4.244934 2.8136292 6.792679l0 0c0 5.30542 -4.300888 9.606308 -9.6063 9.606308l0 0c-5.3054123 0 -9.6063 -4.300888 -9.6063 -9.606308z" fill-rule="evenodd"/><path fill="#d9d9d9" d="m144.32887 181.5433l0 0c0 -5.3054047 4.300888 -9.606293 9.606293 -9.606293l0 0c2.54776 0 4.99115 1.012085 6.792679 2.813614c1.8015289 1.8015289 2.8136292 4.244934 2.8136292 6.792679l0 0c0 5.30542 -4.300888 9.606308 -9.606308 9.606308l0 0c-5.3054047 0 -9.606293 -4.300888 -9.606293 -9.606308z" fill-rule="evenodd"/><path fill="#d9d9d9" d="m173.19554 124.23097l0 0c0 -5.3054123 4.300888 -9.6063 9.606293 -9.6063l0 0c2.5477448 0 4.99115 1.0120926 6.792679 2.8136215c1.8015289 1.8015289 2.8136292 4.2449265 2.8136292 6.792679l0 0c0 5.3054047 -4.300888 9.606293 -9.606308 9.606293l0 0c-5.3054047 0 -9.606293 -4.300888 -9.606293 -9.606293z" fill-rule="evenodd"/><path fill="#d9d9d9" d="m173.19554 152.88715l0 0c0 -5.30542 4.300888 -9.606308 9.606293 -9.606308l0 0c2.5477448 0 4.99115 1.012085 6.792679 2.8136292c1.8015289 1.8015289 2.8136292 4.244919 2.8136292 6.792679l0 0c0 5.3054047 -4.300888 9.606293 -9.606308 9.606293l0 0c-5.3054047 0 -9.606293 -4.300888 -9.606293 -9.606293z" fill-rule="evenodd"/><path fill="#d9d9d9" d="m202.06116 124.23097l0 0c0 -5.3054123 4.300888 -9.6063 9.606293 -9.6063l0 0c2.54776 0 4.99115 1.0120926 6.792679 2.8136215c1.8015289 1.8015289 2.8136292 4.2449265 2.8136292 6.792679l0 0c0 5.3054047 -4.300888 9.606293 -9.606308 9.606293l0 0c-5.3054047 0 -9.606293 -4.300888 -9.606293 -9.606293z" fill-rule="evenodd"/><path fill="#d9d9d9" d="m202.06168 152.88715l0 0c0 -5.30542 4.300888 -9.606308 9.606308 -9.606308l0 0c2.5477448 0 4.99115 1.012085 6.792679 2.8136292c1.8015289 1.8015289 2.813614 4.244919 2.813614 6.792679l0 0c0 5.3054047 -4.300888 9.606293 -9.606293 9.606293l0 0c-5.30542 0 -9.606308 -4.300888 -9.606308 -9.606293z" fill-rule="evenodd"/><path fill="#d9d9d9" d="m173.19554 181.5433l0 0c0 -5.3054047 4.300888 -9.606293 9.606293 -9.606293l0 0c2.5477448 0 4.99115 1.012085 6.792679 2.813614c1.8015289 1.8015289 2.8136292 4.244934 2.8136292 6.792679l0 0c0 5.30542 -4.300888 9.606308 -9.606308 9.606308l0 0c-5.3054047 0 -9.606293 -4.300888 -9.606293 -9.606308z" fill-rule="evenodd"/><path fill="#d9d9d9" d="m202.06116 181.5433l0 0c0 -5.3054047 4.300888 -9.606293 9.606293 -9.606293l0 0c2.54776 0 4.99115 1.012085 6.792679 2.813614c1.8015289 1.8015289 2.8136292 4.244934 2.8136292 6.792679l0 0c0 5.30542 -4.300888 9.606308 -9.606308 9.606308l0 0c-5.3054047 0 -9.606293 -4.300888 -9.606293 -9.606308z" fill-rule="evenodd"/><path fill="#d9d9d9" d="m230.92783 124.23097l0 0c0 -5.3054123 4.300888 -9.6063 9.606293 -9.6063l0 0c2.5477448 0 4.99115 1.0120926 6.792679 2.8136215c1.8015289 1.8015289 2.8136292 4.2449265 2.8136292 6.792679l0 0c0 5.3054047 -4.300888 9.606293 -9.606308 9.606293l0 0c-5.3054047 0 -9.606293 -4.300888 -9.606293 -9.606293z" fill-rule="evenodd"/><path fill="#d9d9d9" d="m230.92783 152.88715l0 0c0 -5.30542 4.300888 -9.606308 9.606293 -9.606308l0 0c2.5477448 0 4.99115 1.012085 6.792679 2.8136292c1.8015289 1.8015289 2.8136292 4.244919 2.8136292 6.792679l0 0c0 5.3054047 -4.300888 9.606293 -9.606308 9.606293l0 0c-5.3054047 0 -9.606293 -4.300888 -9.606293 -9.606293z" fill-rule="evenodd"/><path fill="#365cae" d="m259.79343 124.23097l0 0c0 -5.3054123 4.3009033 -9.6063 9.606323 -9.6063l0 0c2.5477295 0 4.99115 1.0120926 6.7926636 2.8136215c1.8015442 1.8015289 2.8136292 4.2449265 2.8136292 6.792679l0 0c0 5.3054047 -4.3009033 9.606293 -9.606293 9.606293l0 0c-5.30542 0 -9.606323 -4.300888 -9.606323 -9.606293z" fill-rule="evenodd"/><path fill="#365cae" d="m259.79398 152.88715l0 0c0 -5.30542 4.300873 -9.606308 9.606293 -9.606308l0 0c2.5477295 0 4.99115 1.012085 6.7926636 2.8136292c1.8015442 1.8015289 2.8136292 4.244919 2.8136292 6.792679l0 0c0 5.3054047 -4.300873 9.606293 -9.606293 9.606293l0 0c-5.30542 0 -9.606293 -4.300888 -9.606293 -9.606293z" fill-rule="evenodd"/><path fill="#d9d9d9" d="m230.92783 181.5433l0 0c0 -5.3054047 4.300888 -9.606293 9.606293 -9.606293l0 0c2.5477448 0 4.99115 1.012085 6.792679 2.813614c1.8015289 1.8015289 2.8136292 4.244934 2.8136292 6.792679l0 0c0 5.30542 -4.300888 9.606308 -9.606308 9.606308l0 0c-5.3054047 0 -9.606293 -4.300888 -9.606293 -9.606308z" fill-rule="evenodd"/><path fill="#d9d9d9" d="m259.79343 181.5433l0 0c0 -5.3054047 4.3009033 -9.606293 9.606323 -9.606293l0 0c2.5477295 0 4.99115 1.012085 6.7926636 2.813614c1.8015442 1.8015289 2.8136292 4.244934 2.8136292 6.792679l0 0c0 5.30542 -4.3009033 9.606308 -9.606293 9.606308l0 0c-5.30542 0 -9.606323 -4.300888 -9.606323 -9.606308z" fill-rule="evenodd"/><path fill="#365cae" d="m288.6601 124.23097l0 0c0 -5.3054123 4.3009033 -9.6063 9.606323 -9.6063l0 0c2.5477295 0 4.9911194 1.0120926 6.7926636 2.8136215c1.8015442 1.8015289 2.8136292 4.2449265 2.8136292 6.792679l0 0c0 5.3054047 -4.3009033 9.606293 -9.606293 9.606293l0 0c-5.30542 0 -9.606323 -4.300888 -9.606323 -9.606293z" fill-rule="evenodd"/><path fill="#365cae" d="m288.6601 152.88715l0 0c0 -5.30542 4.3009033 -9.606308 9.606323 -9.606308l0 0c2.5477295 0 4.9911194 1.012085 6.7926636 2.8136292c1.8015442 1.8015289 2.8136292 4.244919 2.8136292 6.792679l0 0c0 5.3054047 -4.3009033 9.606293 -9.606293 9.606293l0 0c-5.30542 0 -9.606323 -4.300888 -9.606323 -9.606293z" fill-rule="evenodd"/><path fill="#365cae" d="m317.52573 124.23097l0 0c0 -5.3054123 4.300873 -9.6063 9.606293 -9.6063l0 0c2.54776 0 4.99115 1.0120926 6.792694 2.8136215c1.8015137 1.8015289 2.8135986 4.2449265 2.8135986 6.792679l0 0c0 5.3054047 -4.300873 9.606293 -9.606293 9.606293l0 0c-5.30542 0 -9.606293 -4.300888 -9.606293 -9.606293z" fill-rule="evenodd"/><path fill="#365cae" d="m317.52625 152.88715l0 0c0 -5.30542 4.3009033 -9.606308 9.606293 -9.606308l0 0c2.54776 0 4.99115 1.012085 6.792694 2.8136292c1.8015137 1.8015289 2.8135986 4.244919 2.8135986 6.792679l0 0c0 5.3054047 -4.300873 9.606293 -9.606293 9.606293l0 0c-5.3053894 0 -9.606293 -4.300888 -9.606293 -9.606293z" fill-rule="evenodd"/><path fill="#d9d9d9" d="m288.6601 181.5433l0 0c0 -5.3054047 4.3009033 -9.606293 9.606323 -9.606293l0 0c2.5477295 0 4.9911194 1.012085 6.7926636 2.813614c1.8015442 1.8015289 2.8136292 4.244934 2.8136292 6.792679l0 0c0 5.30542 -4.3009033 9.606308 -9.606293 9.606308l0 0c-5.30542 0 -9.606323 -4.300888 -9.606323 -9.606308z" fill-rule="evenodd"/><path fill="#d9d9d9" d="m317.52573 181.5433l0 0c0 -5.3054047 4.300873 -9.606293 9.606293 -9.606293l0 0c2.54776 0 4.99115 1.012085 6.792694 2.813614c1.8015137 1.8015289 2.8135986 4.244934 2.8135986 6.792679l0 0c0 5.30542 -4.300873 9.606308 -9.606293 9.606308l0 0c-5.30542 0 -9.606293 -4.300888 -9.606293 -9.606308z" fill-rule="evenodd"/><path fill="#d9d9d9" d="m346.3924 124.23097l0 0c0 -5.3054123 4.300873 -9.6063 9.606293 -9.6063l0 0c2.54776 0 4.99115 1.0120926 6.792694 2.8136215c1.8015137 1.8015289 2.8135986 4.2449265 2.8135986 6.792679l0 0c0 5.3054047 -4.300873 9.606293 -9.606293 9.606293l0 0c-5.30542 0 -9.606293 -4.300888 -9.606293 -9.606293z" fill-rule="evenodd"/><path fill="#d9d9d9" d="m346.3924 152.88715l0 0c0 -5.30542 4.300873 -9.606308 9.606293 -9.606308l0 0c2.54776 0 4.99115 1.012085 6.792694 2.8136292c1.8015137 1.8015289 2.8135986 4.244919 2.8135986 6.792679l0 0c0 5.3054047 -4.300873 9.606293 -9.606293 9.606293l0 0c-5.30542 0 -9.606293 -4.300888 -9.606293 -9.606293z" fill-rule="evenodd"/><path fill="#d9d9d9" d="m375.258 124.23097l0 0c0 -5.3054123 4.3009033 -9.6063 9.606323 -9.6063l0 0c2.5477295 0 4.9911194 1.0120926 6.7926636 2.8136215c1.8015442 1.8015289 2.8136292 4.2449265 2.8136292 6.792679l0 0c0 5.3054047 -4.3009033 9.606293 -9.606293 9.606293l0 0c-5.30542 0 -9.606323 -4.300888 -9.606323 -9.606293z" fill-rule="evenodd"/><path fill="#d9d9d9" d="m375.25854 152.88715l0 0c0 -5.30542 4.300873 -9.606308 9.606293 -9.606308l0 0c2.5477295 0 4.99115 1.012085 6.7926636 2.8136292c1.8015442 1.8015289 2.8136292 4.244919 2.8136292 6.792679l0 0c0 5.3054047 -4.3009033 9.606293 -9.606293 9.606293l0 0c-5.30542 0 -9.606293 -4.300888 -9.606293 -9.606293z" fill-rule="evenodd"/><path fill="#d9d9d9" d="m346.3924 181.5433l0 0c0 -5.3054047 4.300873 -9.606293 9.606293 -9.606293l0 0c2.54776 0 4.99115 1.012085 6.792694 2.813614c1.8015137 1.8015289 2.8135986 4.244934 2.8135986 6.792679l0 0c0 5.30542 -4.300873 9.606308 -9.606293 9.606308l0 0c-5.30542 0 -9.606293 -4.300888 -9.606293 -9.606308z" fill-rule="evenodd"/><path fill="#d9d9d9" d="m375.258 181.5433l0 0c0 -5.3054047 4.3009033 -9.606293 9.606323 -9.606293l0 0c2.5477295 0 4.9911194 1.012085 6.7926636 2.813614c1.8015442 1.8015289 2.8136292 4.244934 2.8136292 6.792679l0 0c0 5.30542 -4.3009033 9.606308 -9.606293 9.606308l0 0c-5.30542 0 -9.606323 -4.300888 -9.606323 -9.606308z" fill-rule="evenodd"/><path fill="#d9d9d9" d="m-0.001312336 210.19948l0 0c0 -5.30542 4.3008866 -9.606308 9.606299 -9.606308l0 0c2.5477486 0 4.991149 1.0121002 6.79268 2.8136292c1.8015289 1.8015289 2.8136196 4.244934 2.8136196 6.792679l0 0c0 5.3054047 -4.300887 9.606293 -9.606299 9.606293l0 0c-5.305413 0 -9.606299 -4.300888 -9.606299 -9.606293z" fill-rule="evenodd"/><path fill="#d9d9d9" d="m-0.001312336 238.85564l0 0c0 -5.3054047 4.3008866 -9.606293 9.606299 -9.606293l0 0c2.5477486 0 4.991149 1.012085 6.79268 2.813614c1.8015289 1.8015289 2.8136196 4.244934 2.8136196 6.792679l0 0c0 5.30542 -4.300887 9.606308 -9.606299 9.606308l0 0c-5.305413 0 -9.606299 -4.300888 -9.606299 -9.606308z" fill-rule="evenodd"/><path fill="#d9d9d9" d="m28.864304 210.19948l0 0c0 -5.30542 4.300888 -9.606308 9.6063 -9.606308l0 0c2.5477486 0 4.99115 1.0121002 6.792679 2.8136292c1.8015289 1.8015289 2.8136215 4.244934 2.8136215 6.792679l0 0c0 5.3054047 -4.300888 9.606293 -9.6063 9.606293l0 0c-5.3054123 0 -9.6063 -4.300888 -9.6063 -9.606293z" fill-rule="evenodd"/><path fill="#d9d9d9" d="m28.86483 238.85564l0 0c0 -5.3054047 4.3008842 -9.606293 9.6063 -9.606293l0 0c2.5477486 0 4.991146 1.012085 6.792679 2.813614c1.8015289 1.8015289 2.8136177 4.244934 2.8136177 6.792679l0 0c0 5.30542 -4.3008842 9.606308 -9.606297 9.606308l0 0c-5.305416 0 -9.6063 -4.300888 -9.6063 -9.606308z" fill-rule="evenodd"/><path fill="#d9d9d9" d="m-0.001312336 267.5118l0 0c0 -5.30542 4.3008866 -9.606293 9.606299 -9.606293l0 0c2.5477486 0 4.991149 1.012085 6.79268 2.8136292c1.8015289 1.8015137 2.8136196 4.2449036 2.8136196 6.7926636l0 0c0 5.30542 -4.300887 9.606293 -9.606299 9.606293l0 0c-5.305413 0 -9.606299 -4.300873 -9.606299 -9.606293z" fill-rule="evenodd"/><path fill="#d9d9d9" d="m-0.001312336 296.16797l0 0c0 -5.3053894 4.3008866 -9.606293 9.606299 -9.606293l0 0c2.5477486 0 4.991149 1.012085 6.79268 2.8136292c1.8015289 1.8015137 2.8136196 4.244934 2.8136196 6.7926636l0 0c0 5.30542 -4.300887 9.606323 -9.606299 9.606323l0 0c-5.305413 0 -9.606299 -4.3009033 -9.606299 -9.606323z" fill-rule="evenodd"/><path fill="#d9d9d9" d="m28.864304 267.5118l0 0c0 -5.30542 4.300888 -9.606293 9.6063 -9.606293l0 0c2.5477486 0 4.99115 1.012085 6.792679 2.8136292c1.8015289 1.8015137 2.8136215 4.2449036 2.8136215 6.7926636l0 0c0 5.30542 -4.300888 9.606293 -9.6063 9.606293l0 0c-5.3054123 0 -9.6063 -4.300873 -9.6063 -9.606293z" fill-rule="evenodd"/><path fill="#d9d9d9" d="m28.86483 296.16797l0 0c0 -5.3053894 4.3008842 -9.606293 9.6063 -9.606293l0 0c2.5477486 0 4.991146 1.012085 6.792679 2.8136292c1.8015289 1.8015137 2.8136177 4.244934 2.8136177 6.7926636l0 0c0 5.30542 -4.3008842 9.606323 -9.606297 9.606323l0 0c-5.305416 0 -9.6063 -4.3009033 -9.6063 -9.606323z" fill-rule="evenodd"/><path fill="#365cae" d="m57.730972 210.19948l0 0c0 -5.30542 4.3008842 -9.606308 9.6063 -9.606308l0 0c2.5477448 0 4.99115 1.0121002 6.792679 2.8136292c1.8015289 1.8015289 2.8136215 4.244934 2.8136215 6.792679l0 0c0 5.3054047 -4.300888 9.606293 -9.6063 9.606293l0 0c-5.305416 0 -9.6063 -4.300888 -9.6063 -9.606293z" fill-rule="evenodd"/><path fill="#365cae" d="m57.730972 238.85564l0 0c0 -5.3054047 4.3008842 -9.606293 9.6063 -9.606293l0 0c2.5477448 0 4.99115 1.012085 6.792679 2.813614c1.8015289 1.8015289 2.8136215 4.244934 2.8136215 6.792679l0 0c0 5.30542 -4.300888 9.606308 -9.6063 9.606308l0 0c-5.305416 0 -9.6063 -4.300888 -9.6063 -9.606308z" fill-rule="evenodd"/><path fill="#365cae" d="m86.59659 210.19948l0 0c0 -5.30542 4.300888 -9.606308 9.6063 -9.606308l0 0c2.5477448 0 4.99115 1.0121002 6.792679 2.8136292c1.8015289 1.8015289 2.8136215 4.244934 2.8136215 6.792679l0 0c0 5.3054047 -4.300888 9.606293 -9.6063 9.606293l0 0c-5.3054123 0 -9.6063 -4.300888 -9.6063 -9.606293z" fill-rule="evenodd"/><path fill="#365cae" d="m86.597115 238.85564l0 0c0 -5.3054047 4.300888 -9.606293 9.6063 -9.606293l0 0c2.5477448 0 4.9911423 1.012085 6.792679 2.813614c1.8015289 1.8015289 2.813614 4.244934 2.813614 6.792679l0 0c0 5.30542 -4.3008804 9.606308 -9.606293 9.606308l0 0c-5.3054123 0 -9.6063 -4.300888 -9.6063 -9.606308z" fill-rule="evenodd"/><path fill="#365cae" d="m57.730972 267.5118l0 0c0 -5.30542 4.3008842 -9.606293 9.6063 -9.606293l0 0c2.5477448 0 4.99115 1.012085 6.792679 2.8136292c1.8015289 1.8015137 2.8136215 4.2449036 2.8136215 6.7926636l0 0c0 5.30542 -4.300888 9.606293 -9.6063 9.606293l0 0c-5.305416 0 -9.6063 -4.300873 -9.6063 -9.606293z" fill-rule="evenodd"/><path fill="#d9d9d9" d="m57.730972 296.16797l0 0c0 -5.3053894 4.3008842 -9.606293 9.6063 -9.606293l0 0c2.5477448 0 4.99115 1.012085 6.792679 2.8136292c1.8015289 1.8015137 2.8136215 4.244934 2.8136215 6.7926636l0 0c0 5.30542 -4.300888 9.606323 -9.6063 9.606323l0 0c-5.305416 0 -9.6063 -4.3009033 -9.6063 -9.606323z" fill-rule="evenodd"/><path fill="#365cae" d="m86.59659 267.5118l0 0c0 -5.30542 4.300888 -9.606293 9.6063 -9.606293l0 0c2.5477448 0 4.99115 1.012085 6.792679 2.8136292c1.8015289 1.8015137 2.8136215 4.2449036 2.8136215 6.7926636l0 0c0 5.30542 -4.300888 9.606293 -9.6063 9.606293l0 0c-5.3054123 0 -9.6063 -4.300873 -9.6063 -9.606293z" fill-rule="evenodd"/><path fill="#365cae" d="m86.597115 296.16797l0 0c0 -5.3053894 4.300888 -9.606293 9.6063 -9.606293l0 0c2.5477448 0 4.9911423 1.012085 6.792679 2.8136292c1.8015289 1.8015137 2.813614 4.244934 2.813614 6.7926636l0 0c0 5.30542 -4.3008804 9.606323 -9.606293 9.606323l0 0c-5.3054123 0 -9.6063 -4.3009033 -9.6063 -9.606323z" fill-rule="evenodd"/><path fill="#365cae" d="m115.46326 210.19948l0 0c0 -5.30542 4.300888 -9.606308 9.6063 -9.606308l0 0c2.5477448 0 4.9911423 1.0121002 6.792671 2.8136292c1.8015289 1.8015289 2.8136292 4.244934 2.8136292 6.792679l0 0c0 5.3054047 -4.300888 9.606293 -9.6063 9.606293l0 0c-5.3054123 0 -9.6063 -4.300888 -9.6063 -9.606293z" fill-rule="evenodd"/><path fill="#365cae" d="m115.46326 238.85564l0 0c0 -5.3054047 4.300888 -9.606293 9.6063 -9.606293l0 0c2.5477448 0 4.9911423 1.012085 6.792671 2.813614c1.8015289 1.8015289 2.8136292 4.244934 2.8136292 6.792679l0 0c0 5.30542 -4.300888 9.606308 -9.6063 9.606308l0 0c-5.3054123 0 -9.6063 -4.300888 -9.6063 -9.606308z" fill-rule="evenodd"/><path fill="#d9d9d9" d="m144.32887 210.19948l0 0c0 -5.30542 4.300888 -9.606308 9.606293 -9.606308l0 0c2.54776 0 4.99115 1.0121002 6.792679 2.8136292c1.8015289 1.8015289 2.8136292 4.244934 2.8136292 6.792679l0 0c0 5.3054047 -4.300888 9.606293 -9.606308 9.606293l0 0c-5.3054047 0 -9.606293 -4.300888 -9.606293 -9.606293z" fill-rule="evenodd"/><path fill="#d9d9d9" d="m144.32939 238.85564l0 0c0 -5.3054047 4.300888 -9.606293 9.606308 -9.606293l0 0c2.5477448 0 4.99115 1.012085 6.792679 2.813614c1.8015289 1.8015289 2.813614 4.244934 2.813614 6.792679l0 0c0 5.30542 -4.300888 9.606308 -9.606293 9.606308l0 0c-5.30542 0 -9.606308 -4.300888 -9.606308 -9.606308z" fill-rule="evenodd"/><path fill="#365cae" d="m115.46326 267.5118l0 0c0 -5.30542 4.300888 -9.606293 9.6063 -9.606293l0 0c2.5477448 0 4.9911423 1.012085 6.792671 2.8136292c1.8015289 1.8015137 2.8136292 4.2449036 2.8136292 6.7926636l0 0c0 5.30542 -4.300888 9.606293 -9.6063 9.606293l0 0c-5.3054123 0 -9.6063 -4.300873 -9.6063 -9.606293z" fill-rule="evenodd"/><path fill="#365cae" d="m115.46326 296.16797l0 0c0 -5.3053894 4.300888 -9.606293 9.6063 -9.606293l0 0c2.5477448 0 4.9911423 1.012085 6.792671 2.8136292c1.8015289 1.8015137 2.8136292 4.244934 2.8136292 6.7926636l0 0c0 5.30542 -4.300888 9.606323 -9.6063 9.606323l0 0c-5.3054123 0 -9.6063 -4.3009033 -9.6063 -9.606323z" fill-rule="evenodd"/><path fill="#d9d9d9" d="m144.32887 267.5118l0 0c0 -5.30542 4.300888 -9.606293 9.606293 -9.606293l0 0c2.54776 0 4.99115 1.012085 6.792679 2.8136292c1.8015289 1.8015137 2.8136292 4.2449036 2.8136292 6.7926636l0 0c0 5.30542 -4.300888 9.606293 -9.606308 9.606293l0 0c-5.3054047 0 -9.606293 -4.300873 -9.606293 -9.606293z" fill-rule="evenodd"/><path fill="#365cae" d="m144.32939 296.16797l0 0c0 -5.3053894 4.300888 -9.606293 9.606308 -9.606293l0 0c2.5477448 0 4.99115 1.012085 6.792679 2.8136292c1.8015289 1.8015137 2.813614 4.244934 2.813614 6.7926636l0 0c0 5.30542 -4.300888 9.606323 -9.606293 9.606323l0 0c-5.30542 0 -9.606308 -4.3009033 -9.606308 -9.606323z" fill-rule="evenodd"/><path fill="#d9d9d9" d="m173.19554 210.19948l0 0c0 -5.30542 4.300888 -9.606308 9.606293 -9.606308l0 0c2.5477448 0 4.99115 1.0121002 6.792679 2.8136292c1.8015289 1.8015289 2.8136292 4.244934 2.8136292 6.792679l0 0c0 5.3054047 -4.300888 9.606293 -9.606308 9.606293l0 0c-5.3054047 0 -9.606293 -4.300888 -9.606293 -9.606293z" fill-rule="evenodd"/><path fill="#d9d9d9" d="m173.19554 238.85564l0 0c0 -5.3054047 4.300888 -9.606293 9.606293 -9.606293l0 0c2.5477448 0 4.99115 1.012085 6.792679 2.813614c1.8015289 1.8015289 2.8136292 4.244934 2.8136292 6.792679l0 0c0 5.30542 -4.300888 9.606308 -9.606308 9.606308l0 0c-5.3054047 0 -9.606293 -4.300888 -9.606293 -9.606308z" fill-rule="evenodd"/><path fill="#d9d9d9" d="m202.06116 210.19948l0 0c0 -5.30542 4.300888 -9.606308 9.606293 -9.606308l0 0c2.54776 0 4.99115 1.0121002 6.792679 2.8136292c1.8015289 1.8015289 2.8136292 4.244934 2.8136292 6.792679l0 0c0 5.3054047 -4.300888 9.606293 -9.606308 9.606293l0 0c-5.3054047 0 -9.606293 -4.300888 -9.606293 -9.606293z" fill-rule="evenodd"/><path fill="#d9d9d9" d="m202.06168 238.85564l0 0c0 -5.3054047 4.300888 -9.606293 9.606308 -9.606293l0 0c2.5477448 0 4.99115 1.012085 6.792679 2.813614c1.8015289 1.8015289 2.813614 4.244934 2.813614 6.792679l0 0c0 5.30542 -4.300888 9.606308 -9.606293 9.606308l0 0c-5.30542 0 -9.606308 -4.300888 -9.606308 -9.606308z" fill-rule="evenodd"/><path fill="#d9d9d9" d="m173.19554 267.5118l0 0c0 -5.30542 4.300888 -9.606293 9.606293 -9.606293l0 0c2.5477448 0 4.99115 1.012085 6.792679 2.8136292c1.8015289 1.8015137 2.8136292 4.2449036 2.8136292 6.7926636l0 0c0 5.30542 -4.300888 9.606293 -9.606308 9.606293l0 0c-5.3054047 0 -9.606293 -4.300873 -9.606293 -9.606293z" fill-rule="evenodd"/><path fill="#365cae" d="m173.19554 296.16797l0 0c0 -5.3053894 4.300888 -9.606293 9.606293 -9.606293l0 0c2.5477448 0 4.99115 1.012085 6.792679 2.8136292c1.8015289 1.8015137 2.8136292 4.244934 2.8136292 6.7926636l0 0c0 5.30542 -4.300888 9.606323 -9.606308 9.606323l0 0c-5.3054047 0 -9.606293 -4.3009033 -9.606293 -9.606323z" fill-rule="evenodd"/><path fill="#d9d9d9" d="m202.06116 267.5118l0 0c0 -5.30542 4.300888 -9.606293 9.606293 -9.606293l0 0c2.54776 0 4.99115 1.012085 6.792679 2.8136292c1.8015289 1.8015137 2.8136292 4.2449036 2.8136292 6.7926636l0 0c0 5.30542 -4.300888 9.606293 -9.606308 9.606293l0 0c-5.3054047 0 -9.606293 -4.300873 -9.606293 -9.606293z" fill-rule="evenodd"/><path fill="#365cae" d="m202.06168 296.16797l0 0c0 -5.3053894 4.300888 -9.606293 9.606308 -9.606293l0 0c2.5477448 0 4.99115 1.012085 6.792679 2.8136292c1.8015289 1.8015137 2.813614 4.244934 2.813614 6.7926636l0 0c0 5.30542 -4.300888 9.606323 -9.606293 9.606323l0 0c-5.30542 0 -9.606308 -4.3009033 -9.606308 -9.606323z" fill-rule="evenodd"/><path fill="#d9d9d9" d="m230.92783 210.19948l0 0c0 -5.30542 4.300888 -9.606308 9.606293 -9.606308l0 0c2.5477448 0 4.99115 1.0121002 6.792679 2.8136292c1.8015289 1.8015289 2.8136292 4.244934 2.8136292 6.792679l0 0c0 5.3054047 -4.300888 9.606293 -9.606308 9.606293l0 0c-5.3054047 0 -9.606293 -4.300888 -9.606293 -9.606293z" fill-rule="evenodd"/><path fill="#d9d9d9" d="m230.92783 238.85564l0 0c0 -5.3054047 4.300888 -9.606293 9.606293 -9.606293l0 0c2.5477448 0 4.99115 1.012085 6.792679 2.813614c1.8015289 1.8015289 2.8136292 4.244934 2.8136292 6.792679l0 0c0 5.30542 -4.300888 9.606308 -9.606308 9.606308l0 0c-5.3054047 0 -9.606293 -4.300888 -9.606293 -9.606308z" fill-rule="evenodd"/><path fill="#d9d9d9" d="m259.79343 210.19948l0 0c0 -5.30542 4.3009033 -9.606308 9.606323 -9.606308l0 0c2.5477295 0 4.99115 1.0121002 6.7926636 2.8136292c1.8015442 1.8015289 2.8136292 4.244934 2.8136292 6.792679l0 0c0 5.3054047 -4.3009033 9.606293 -9.606293 9.606293l0 0c-5.30542 0 -9.606323 -4.300888 -9.606323 -9.606293z" fill-rule="evenodd"/><path fill="#365cae" d="m259.79398 238.85564l0 0c0 -5.3054047 4.300873 -9.606293 9.606293 -9.606293l0 0c2.5477295 0 4.99115 1.012085 6.7926636 2.813614c1.8015442 1.8015289 2.8136292 4.244934 2.8136292 6.792679l0 0c0 5.30542 -4.300873 9.606308 -9.606293 9.606308l0 0c-5.30542 0 -9.606293 -4.300888 -9.606293 -9.606308z" fill-rule="evenodd"/><path fill="#d9d9d9" d="m230.92783 267.5118l0 0c0 -5.30542 4.300888 -9.606293 9.606293 -9.606293l0 0c2.5477448 0 4.99115 1.012085 6.792679 2.8136292c1.8015289 1.8015137 2.8136292 4.2449036 2.8136292 6.7926636l0 0c0 5.30542 -4.300888 9.606293 -9.606308 9.606293l0 0c-5.3054047 0 -9.606293 -4.300873 -9.606293 -9.606293z" fill-rule="evenodd"/><path fill="#365cae" d="m230.92783 296.16797l0 0c0 -5.3053894 4.300888 -9.606293 9.606293 -9.606293l0 0c2.5477448 0 4.99115 1.012085 6.792679 2.8136292c1.8015289 1.8015137 2.8136292 4.244934 2.8136292 6.7926636l0 0c0 5.30542 -4.300888 9.606323 -9.606308 9.606323l0 0c-5.3054047 0 -9.606293 -4.3009033 -9.606293 -9.606323z" fill-rule="evenodd"/><path fill="#365cae" d="m259.79343 267.5118l0 0c0 -5.30542 4.3009033 -9.606293 9.606323 -9.606293l0 0c2.5477295 0 4.99115 1.012085 6.7926636 2.8136292c1.8015442 1.8015137 2.8136292 4.2449036 2.8136292 6.7926636l0 0c0 5.30542 -4.3009033 9.606293 -9.606293 9.606293l0 0c-5.30542 0 -9.606323 -4.300873 -9.606323 -9.606293z" fill-rule="evenodd"/><path fill="#365cae" d="m259.79398 296.16797l0 0c0 -5.3053894 4.300873 -9.606293 9.606293 -9.606293l0 0c2.5477295 0 4.99115 1.012085 6.7926636 2.8136292c1.8015442 1.8015137 2.8136292 4.244934 2.8136292 6.7926636l0 0c0 5.30542 -4.300873 9.606323 -9.606293 9.606323l0 0c-5.30542 0 -9.606293 -4.3009033 -9.606293 -9.606323z" fill-rule="evenodd"/><path fill="#d9d9d9" d="m288.6601 210.19948l0 0c0 -5.30542 4.3009033 -9.606308 9.606323 -9.606308l0 0c2.5477295 0 4.9911194 1.0121002 6.7926636 2.8136292c1.8015442 1.8015289 2.8136292 4.244934 2.8136292 6.792679l0 0c0 5.3054047 -4.3009033 9.606293 -9.606293 9.606293l0 0c-5.30542 0 -9.606323 -4.300888 -9.606323 -9.606293z" fill-rule="evenodd"/><path fill="#365cae" d="m288.6601 238.85564l0 0c0 -5.3054047 4.3009033 -9.606293 9.606323 -9.606293l0 0c2.5477295 0 4.9911194 1.012085 6.7926636 2.813614c1.8015442 1.8015289 2.8136292 4.244934 2.8136292 6.792679l0 0c0 5.30542 -4.3009033 9.606308 -9.606293 9.606308l0 0c-5.30542 0 -9.606323 -4.300888 -9.606323 -9.606308z" fill-rule="evenodd"/><path fill="#d9d9d9" d="m317.52573 210.19948l0 0c0 -5.30542 4.300873 -9.606308 9.606293 -9.606308l0 0c2.54776 0 4.99115 1.0121002 6.792694 2.8136292c1.8015137 1.8015289 2.8135986 4.244934 2.8135986 6.792679l0 0c0 5.3054047 -4.300873 9.606293 -9.606293 9.606293l0 0c-5.30542 0 -9.606293 -4.300888 -9.606293 -9.606293z" fill-rule="evenodd"/><path fill="#365cae" d="m317.52625 238.85564l0 0c0 -5.3054047 4.3009033 -9.606293 9.606293 -9.606293l0 0c2.54776 0 4.99115 1.012085 6.792694 2.813614c1.8015137 1.8015289 2.8135986 4.244934 2.8135986 6.792679l0 0c0 5.30542 -4.300873 9.606308 -9.606293 9.606308l0 0c-5.3053894 0 -9.606293 -4.300888 -9.606293 -9.606308z" fill-rule="evenodd"/><path fill="#365cae" d="m288.6601 267.5118l0 0c0 -5.30542 4.3009033 -9.606293 9.606323 -9.606293l0 0c2.5477295 0 4.9911194 1.012085 6.7926636 2.8136292c1.8015442 1.8015137 2.8136292 4.2449036 2.8136292 6.7926636l0 0c0 5.30542 -4.3009033 9.606293 -9.606293 9.606293l0 0c-5.30542 0 -9.606323 -4.300873 -9.606323 -9.606293z" fill-rule="evenodd"/><path fill="#365cae" d="m288.6601 296.16797l0 0c0 -5.3053894 4.3009033 -9.606293 9.606323 -9.606293l0 0c2.5477295 0 4.9911194 1.012085 6.7926636 2.8136292c1.8015442 1.8015137 2.8136292 4.244934 2.8136292 6.7926636l0 0c0 5.30542 -4.3009033 9.606323 -9.606293 9.606323l0 0c-5.30542 0 -9.606323 -4.3009033 -9.606323 -9.606323z" fill-rule="evenodd"/><path fill="#365cae" d="m317.52573 267.5118l0 0c0 -5.30542 4.300873 -9.606293 9.606293 -9.606293l0 0c2.54776 0 4.99115 1.012085 6.792694 2.8136292c1.8015137 1.8015137 2.8135986 4.2449036 2.8135986 6.7926636l0 0c0 5.30542 -4.300873 9.606293 -9.606293 9.606293l0 0c-5.30542 0 -9.606293 -4.300873 -9.606293 -9.606293z" fill-rule="evenodd"/><path fill="#365cae" d="m317.52625 296.16797l0 0c0 -5.3053894 4.3009033 -9.606293 9.606293 -9.606293l0 0c2.54776 0 4.99115 1.012085 6.792694 2.8136292c1.8015137 1.8015137 2.8135986 4.244934 2.8135986 6.7926636l0 0c0 5.30542 -4.300873 9.606323 -9.606293 9.606323l0 0c-5.3053894 0 -9.606293 -4.3009033 -9.606293 -9.606323z" fill-rule="evenodd"/><path fill="#d9d9d9" d="m346.3924 210.19948l0 0c0 -5.30542 4.300873 -9.606308 9.606293 -9.606308l0 0c2.54776 0 4.99115 1.0121002 6.792694 2.8136292c1.8015137 1.8015289 2.8135986 4.244934 2.8135986 6.792679l0 0c0 5.3054047 -4.300873 9.606293 -9.606293 9.606293l0 0c-5.30542 0 -9.606293 -4.300888 -9.606293 -9.606293z" fill-rule="evenodd"/><path fill="#d9d9d9" d="m346.3924 238.85564l0 0c0 -5.3054047 4.300873 -9.606293 9.606293 -9.606293l0 0c2.54776 0 4.99115 1.012085 6.792694 2.813614c1.8015137 1.8015289 2.8135986 4.244934 2.8135986 6.792679l0 0c0 5.30542 -4.300873 9.606308 -9.606293 9.606308l0 0c-5.30542 0 -9.606293 -4.300888 -9.606293 -9.606308z" fill-rule="evenodd"/><path fill="#d9d9d9" d="m375.258 210.19948l0 0c0 -5.30542 4.3009033 -9.606308 9.606323 -9.606308l0 0c2.5477295 0 4.9911194 1.0121002 6.7926636 2.8136292c1.8015442 1.8015289 2.8136292 4.244934 2.8136292 6.792679l0 0c0 5.3054047 -4.3009033 9.606293 -9.606293 9.606293l0 0c-5.30542 0 -9.606323 -4.300888 -9.606323 -9.606293z" fill-rule="evenodd"/><path fill="#d9d9d9" d="m375.25854 238.85564l0 0c0 -5.3054047 4.300873 -9.606293 9.606293 -9.606293l0 0c2.5477295 0 4.99115 1.012085 6.7926636 2.813614c1.8015442 1.8015289 2.8136292 4.244934 2.8136292 6.792679l0 0c0 5.30542 -4.3009033 9.606308 -9.606293 9.606308l0 0c-5.30542 0 -9.606293 -4.300888 -9.606293 -9.606308z" fill-rule="evenodd"/><path fill="#d9d9d9" d="m346.3924 267.5118l0 0c0 -5.30542 4.300873 -9.606293 9.606293 -9.606293l0 0c2.54776 0 4.99115 1.012085 6.792694 2.8136292c1.8015137 1.8015137 2.8135986 4.2449036 2.8135986 6.7926636l0 0c0 5.30542 -4.300873 9.606293 -9.606293 9.606293l0 0c-5.30542 0 -9.606293 -4.300873 -9.606293 -9.606293z" fill-rule="evenodd"/><path fill="#d9d9d9" d="m346.3924 296.16797l0 0c0 -5.3053894 4.300873 -9.606293 9.606293 -9.606293l0 0c2.54776 0 4.99115 1.012085 6.792694 2.8136292c1.8015137 1.8015137 2.8135986 4.244934 2.8135986 6.7926636l0 0c0 5.30542 -4.300873 9.606323 -9.606293 9.606323l0 0c-5.30542 0 -9.606293 -4.3009033 -9.606293 -9.606323z" fill-rule="evenodd"/><path fill="#d9d9d9" d="m375.258 267.5118l0 0c0 -5.30542 4.3009033 -9.606293 9.606323 -9.606293l0 0c2.5477295 0 4.9911194 1.012085 6.7926636 2.8136292c1.8015442 1.8015137 2.8136292 4.2449036 2.8136292 6.7926636l0 0c0 5.30542 -4.3009033 9.606293 -9.606293 9.606293l0 0c-5.30542 0 -9.606323 -4.300873 -9.606323 -9.606293z" fill-rule="evenodd"/><path fill="#d9d9d9" d="m375.25854 296.16797l0 0c0 -5.3053894 4.300873 -9.606293 9.606293 -9.606293l0 0c2.5477295 0 4.99115 1.012085 6.7926636 2.8136292c1.8015442 1.8015137 2.8136292 4.244934 2.8136292 6.7926636l0 0c0 5.30542 -4.3009033 9.606323 -9.606293 9.606323l0 0c-5.30542 0 -9.606293 -4.3009033 -9.606293 -9.606323z" fill-rule="evenodd"/><path fill="#d9d9d9" d="m-0.001312336 324.82416l0 0c0 -5.30542 4.3008866 -9.606323 9.606299 -9.606323l0 0c2.5477486 0 4.991149 1.0121155 6.79268 2.8136292c1.8015289 1.8015442 2.8136196 4.244934 2.8136196 6.792694l0 0c0 5.3053894 -4.300887 9.606293 -9.606299 9.606293l0 0c-5.305413 0 -9.606299 -4.3009033 -9.606299 -9.606293z" fill-rule="evenodd"/><path fill="#d9d9d9" d="m-0.001312336 353.48032l0 0c0 -5.30542 4.3008866 -9.606293 9.606299 -9.606293l0 0c2.5477486 0 4.991149 1.012085 6.79268 2.8135986c1.8015289 1.8015442 2.8136196 4.244934 2.8136196 6.792694l0 0c0 5.30542 -4.300887 9.606293 -9.606299 9.606293l0 0c-5.305413 0 -9.606299 -4.300873 -9.606299 -9.606293z" fill-rule="evenodd"/><path fill="#d9d9d9" d="m28.864304 324.82416l0 0c0 -5.30542 4.300888 -9.606323 9.6063 -9.606323l0 0c2.5477486 0 4.99115 1.0121155 6.792679 2.8136292c1.8015289 1.8015442 2.8136215 4.244934 2.8136215 6.792694l0 0c0 5.3053894 -4.300888 9.606293 -9.6063 9.606293l0 0c-5.3054123 0 -9.6063 -4.3009033 -9.6063 -9.606293z" fill-rule="evenodd"/><path fill="#d9d9d9" d="m28.86483 353.48032l0 0c0 -5.30542 4.3008842 -9.606293 9.6063 -9.606293l0 0c2.5477486 0 4.991146 1.012085 6.792679 2.8135986c1.8015289 1.8015442 2.8136177 4.244934 2.8136177 6.792694l0 0c0 5.30542 -4.3008842 9.606293 -9.606297 9.606293l0 0c-5.305416 0 -9.6063 -4.300873 -9.6063 -9.606293z" fill-rule="evenodd"/><path fill="#d9d9d9" d="m-0.001312336 382.13647l0 0c0 -5.3053894 4.3008866 -9.606293 9.606299 -9.606293l0 0c2.5477486 0 4.991149 1.012085 6.79268 2.8136292c1.8015289 1.8015137 2.8136196 4.244934 2.8136196 6.7926636l0 0c0 5.30542 -4.300887 9.606293 -9.606299 9.606293l0 0c-5.305413 0 -9.606299 -4.300873 -9.606299 -9.606293z" fill-rule="evenodd"/><path fill="#d9d9d9" d="m28.864304 382.13647l0 0c0 -5.3053894 4.300888 -9.606293 9.6063 -9.606293l0 0c2.5477486 0 4.99115 1.012085 6.792679 2.8136292c1.8015289 1.8015137 2.8136215 4.244934 2.8136215 6.7926636l0 0c0 5.30542 -4.300888 9.606293 -9.6063 9.606293l0 0c-5.3054123 0 -9.6063 -4.300873 -9.6063 -9.606293z" fill-rule="evenodd"/><path fill="#d9d9d9" d="m57.730972 324.82416l0 0c0 -5.30542 4.3008842 -9.606323 9.6063 -9.606323l0 0c2.5477448 0 4.99115 1.0121155 6.792679 2.8136292c1.8015289 1.8015442 2.8136215 4.244934 2.8136215 6.792694l0 0c0 5.3053894 -4.300888 9.606293 -9.6063 9.606293l0 0c-5.305416 0 -9.6063 -4.3009033 -9.6063 -9.606293z" fill-rule="evenodd"/><path fill="#d9d9d9" d="m57.730972 353.48032l0 0c0 -5.30542 4.3008842 -9.606293 9.6063 -9.606293l0 0c2.5477448 0 4.99115 1.012085 6.792679 2.8135986c1.8015289 1.8015442 2.8136215 4.244934 2.8136215 6.792694l0 0c0 5.30542 -4.300888 9.606293 -9.6063 9.606293l0 0c-5.305416 0 -9.6063 -4.300873 -9.6063 -9.606293z" fill-rule="evenodd"/><path fill="#d9d9d9" d="m86.59659 324.82416l0 0c0 -5.30542 4.300888 -9.606323 9.6063 -9.606323l0 0c2.5477448 0 4.99115 1.0121155 6.792679 2.8136292c1.8015289 1.8015442 2.8136215 4.244934 2.8136215 6.792694l0 0c0 5.3053894 -4.300888 9.606293 -9.6063 9.606293l0 0c-5.3054123 0 -9.6063 -4.3009033 -9.6063 -9.606293z" fill-rule="evenodd"/><path fill="#d9d9d9" d="m86.597115 353.48032l0 0c0 -5.30542 4.300888 -9.606293 9.6063 -9.606293l0 0c2.5477448 0 4.9911423 1.012085 6.792679 2.8135986c1.8015289 1.8015442 2.813614 4.244934 2.813614 6.792694l0 0c0 5.30542 -4.3008804 9.606293 -9.606293 9.606293l0 0c-5.3054123 0 -9.6063 -4.300873 -9.6063 -9.606293z" fill-rule="evenodd"/><path fill="#d9d9d9" d="m57.730972 382.13647l0 0c0 -5.3053894 4.3008842 -9.606293 9.6063 -9.606293l0 0c2.5477448 0 4.99115 1.012085 6.792679 2.8136292c1.8015289 1.8015137 2.8136215 4.244934 2.8136215 6.7926636l0 0c0 5.30542 -4.300888 9.606293 -9.6063 9.606293l0 0c-5.305416 0 -9.6063 -4.300873 -9.6063 -9.606293z" fill-rule="evenodd"/><path fill="#d9d9d9" d="m86.59659 382.13647l0 0c0 -5.3053894 4.300888 -9.606293 9.6063 -9.606293l0 0c2.5477448 0 4.99115 1.012085 6.792679 2.8136292c1.8015289 1.8015137 2.8136215 4.244934 2.8136215 6.7926636l0 0c0 5.30542 -4.300888 9.606293 -9.6063 9.606293l0 0c-5.3054123 0 -9.6063 -4.300873 -9.6063 -9.606293z" fill-rule="evenodd"/><path fill="#365cae" d="m115.46326 324.82416l0 0c0 -5.30542 4.300888 -9.606323 9.6063 -9.606323l0 0c2.5477448 0 4.9911423 1.0121155 6.792671 2.8136292c1.8015289 1.8015442 2.8136292 4.244934 2.8136292 6.792694l0 0c0 5.3053894 -4.300888 9.606293 -9.6063 9.606293l0 0c-5.3054123 0 -9.6063 -4.3009033 -9.6063 -9.606293z" fill-rule="evenodd"/><path fill="#d9d9d9" d="m115.46326 353.48032l0 0c0 -5.30542 4.300888 -9.606293 9.6063 -9.606293l0 0c2.5477448 0 4.9911423 1.012085 6.792671 2.8135986c1.8015289 1.8015442 2.8136292 4.244934 2.8136292 6.792694l0 0c0 5.30542 -4.300888 9.606293 -9.6063 9.606293l0 0c-5.3054123 0 -9.6063 -4.300873 -9.6063 -9.606293z" fill-rule="evenodd"/><path fill="#365cae" d="m144.32887 324.82416l0 0c0 -5.30542 4.300888 -9.606323 9.606293 -9.606323l0 0c2.54776 0 4.99115 1.0121155 6.792679 2.8136292c1.8015289 1.8015442 2.8136292 4.244934 2.8136292 6.792694l0 0c0 5.3053894 -4.300888 9.606293 -9.606308 9.606293l0 0c-5.3054047 0 -9.606293 -4.3009033 -9.606293 -9.606293z" fill-rule="evenodd"/><path fill="#365cae" d="m144.32939 353.48032l0 0c0 -5.30542 4.300888 -9.606293 9.606308 -9.606293l0 0c2.5477448 0 4.99115 1.012085 6.792679 2.8135986c1.8015289 1.8015442 2.813614 4.244934 2.813614 6.792694l0 0c0 5.30542 -4.300888 9.606293 -9.606293 9.606293l0 0c-5.30542 0 -9.606308 -4.300873 -9.606308 -9.606293z" fill-rule="evenodd"/><path fill="#d9d9d9" d="m115.46326 382.13647l0 0c0 -5.3053894 4.300888 -9.606293 9.6063 -9.606293l0 0c2.5477448 0 4.9911423 1.012085 6.792671 2.8136292c1.8015289 1.8015137 2.8136292 4.244934 2.8136292 6.7926636l0 0c0 5.30542 -4.300888 9.606293 -9.6063 9.606293l0 0c-5.3054123 0 -9.6063 -4.300873 -9.6063 -9.606293z" fill-rule="evenodd"/><path fill="#d9d9d9" d="m144.32887 382.13647l0 0c0 -5.3053894 4.300888 -9.606293 9.606293 -9.606293l0 0c2.54776 0 4.99115 1.012085 6.792679 2.8136292c1.8015289 1.8015137 2.8136292 4.244934 2.8136292 6.7926636l0 0c0 5.30542 -4.300888 9.606293 -9.606308 9.606293l0 0c-5.3054047 0 -9.606293 -4.300873 -9.606293 -9.606293z" fill-rule="evenodd"/><path fill="#365cae" d="m173.19554 324.82416l0 0c0 -5.30542 4.300888 -9.606323 9.606293 -9.606323l0 0c2.5477448 0 4.99115 1.0121155 6.792679 2.8136292c1.8015289 1.8015442 2.8136292 4.244934 2.8136292 6.792694l0 0c0 5.3053894 -4.300888 9.606293 -9.606308 9.606293l0 0c-5.3054047 0 -9.606293 -4.3009033 -9.606293 -9.606293z" fill-rule="evenodd"/><path fill="#365cae" d="m173.19554 353.48032l0 0c0 -5.30542 4.300888 -9.606293 9.606293 -9.606293l0 0c2.5477448 0 4.99115 1.012085 6.792679 2.8135986c1.8015289 1.8015442 2.8136292 4.244934 2.8136292 6.792694l0 0c0 5.30542 -4.300888 9.606293 -9.606308 9.606293l0 0c-5.3054047 0 -9.606293 -4.300873 -9.606293 -9.606293z" fill-rule="evenodd"/><path fill="#365cae" d="m202.06116 324.82416l0 0c0 -5.30542 4.300888 -9.606323 9.606293 -9.606323l0 0c2.54776 0 4.99115 1.0121155 6.792679 2.8136292c1.8015289 1.8015442 2.8136292 4.244934 2.8136292 6.792694l0 0c0 5.3053894 -4.300888 9.606293 -9.606308 9.606293l0 0c-5.3054047 0 -9.606293 -4.3009033 -9.606293 -9.606293z" fill-rule="evenodd"/><path fill="#365cae" d="m202.06168 353.48032l0 0c0 -5.30542 4.300888 -9.606293 9.606308 -9.606293l0 0c2.5477448 0 4.99115 1.012085 6.792679 2.8135986c1.8015289 1.8015442 2.813614 4.244934 2.813614 6.792694l0 0c0 5.30542 -4.300888 9.606293 -9.606293 9.606293l0 0c-5.30542 0 -9.606308 -4.300873 -9.606308 -9.606293z" fill-rule="evenodd"/><path fill="#d9d9d9" d="m173.19554 382.13647l0 0c0 -5.3053894 4.300888 -9.606293 9.606293 -9.606293l0 0c2.5477448 0 4.99115 1.012085 6.792679 2.8136292c1.8015289 1.8015137 2.8136292 4.244934 2.8136292 6.7926636l0 0c0 5.30542 -4.300888 9.606293 -9.606308 9.606293l0 0c-5.3054047 0 -9.606293 -4.300873 -9.606293 -9.606293z" fill-rule="evenodd"/><path fill="#d9d9d9" d="m202.06116 382.13647l0 0c0 -5.3053894 4.300888 -9.606293 9.606293 -9.606293l0 0c2.54776 0 4.99115 1.012085 6.792679 2.8136292c1.8015289 1.8015137 2.8136292 4.244934 2.8136292 6.7926636l0 0c0 5.30542 -4.300888 9.606293 -9.606308 9.606293l0 0c-5.3054047 0 -9.606293 -4.300873 -9.606293 -9.606293z" fill-rule="evenodd"/><path fill="#365cae" d="m230.92783 324.82416l0 0c0 -5.30542 4.300888 -9.606323 9.606293 -9.606323l0 0c2.5477448 0 4.99115 1.0121155 6.792679 2.8136292c1.8015289 1.8015442 2.8136292 4.244934 2.8136292 6.792694l0 0c0 5.3053894 -4.300888 9.606293 -9.606308 9.606293l0 0c-5.3054047 0 -9.606293 -4.3009033 -9.606293 -9.606293z" fill-rule="evenodd"/><path fill="#365cae" d="m230.92783 353.48032l0 0c0 -5.30542 4.300888 -9.606293 9.606293 -9.606293l0 0c2.5477448 0 4.99115 1.012085 6.792679 2.8135986c1.8015289 1.8015442 2.8136292 4.244934 2.8136292 6.792694l0 0c0 5.30542 -4.300888 9.606293 -9.606308 9.606293l0 0c-5.3054047 0 -9.606293 -4.300873 -9.606293 -9.606293z" fill-rule="evenodd"/><path fill="#365cae" d="m259.79343 324.82416l0 0c0 -5.30542 4.3009033 -9.606323 9.606323 -9.606323l0 0c2.5477295 0 4.99115 1.0121155 6.7926636 2.8136292c1.8015442 1.8015442 2.8136292 4.244934 2.8136292 6.792694l0 0c0 5.3053894 -4.3009033 9.606293 -9.606293 9.606293l0 0c-5.30542 0 -9.606323 -4.3009033 -9.606323 -9.606293z" fill-rule="evenodd"/><path fill="#365cae" d="m259.79398 353.48032l0 0c0 -5.30542 4.300873 -9.606293 9.606293 -9.606293l0 0c2.5477295 0 4.99115 1.012085 6.7926636 2.8135986c1.8015442 1.8015442 2.8136292 4.244934 2.8136292 6.792694l0 0c0 5.30542 -4.300873 9.606293 -9.606293 9.606293l0 0c-5.30542 0 -9.606293 -4.300873 -9.606293 -9.606293z" fill-rule="evenodd"/><path fill="#d9d9d9" d="m230.92783 382.13647l0 0c0 -5.3053894 4.300888 -9.606293 9.606293 -9.606293l0 0c2.5477448 0 4.99115 1.012085 6.792679 2.8136292c1.8015289 1.8015137 2.8136292 4.244934 2.8136292 6.7926636l0 0c0 5.30542 -4.300888 9.606293 -9.606308 9.606293l0 0c-5.3054047 0 -9.606293 -4.300873 -9.606293 -9.606293z" fill-rule="evenodd"/><path fill="#d9d9d9" d="m259.79343 382.13647l0 0c0 -5.3053894 4.3009033 -9.606293 9.606323 -9.606293l0 0c2.5477295 0 4.99115 1.012085 6.7926636 2.8136292c1.8015442 1.8015137 2.8136292 4.244934 2.8136292 6.7926636l0 0c0 5.30542 -4.3009033 9.606293 -9.606293 9.606293l0 0c-5.30542 0 -9.606323 -4.300873 -9.606323 -9.606293z" fill-rule="evenodd"/><path fill="#365cae" d="m288.6601 324.82416l0 0c0 -5.30542 4.3009033 -9.606323 9.606323 -9.606323l0 0c2.5477295 0 4.9911194 1.0121155 6.7926636 2.8136292c1.8015442 1.8015442 2.8136292 4.244934 2.8136292 6.792694l0 0c0 5.3053894 -4.3009033 9.606293 -9.606293 9.606293l0 0c-5.30542 0 -9.606323 -4.3009033 -9.606323 -9.606293z" fill-rule="evenodd"/><path fill="#d9d9d9" d="m288.6601 353.48032l0 0c0 -5.30542 4.3009033 -9.606293 9.606323 -9.606293l0 0c2.5477295 0 4.9911194 1.012085 6.7926636 2.8135986c1.8015442 1.8015442 2.8136292 4.244934 2.8136292 6.792694l0 0c0 5.30542 -4.3009033 9.606293 -9.606293 9.606293l0 0c-5.30542 0 -9.606323 -4.300873 -9.606323 -9.606293z" fill-rule="evenodd"/><path fill="#d9d9d9" d="m317.52573 324.82416l0 0c0 -5.30542 4.300873 -9.606323 9.606293 -9.606323l0 0c2.54776 0 4.99115 1.0121155 6.792694 2.8136292c1.8015137 1.8015442 2.8135986 4.244934 2.8135986 6.792694l0 0c0 5.3053894 -4.300873 9.606293 -9.606293 9.606293l0 0c-5.30542 0 -9.606293 -4.3009033 -9.606293 -9.606293z" fill-rule="evenodd"/><path fill="#d9d9d9" d="m317.52625 353.48032l0 0c0 -5.30542 4.3009033 -9.606293 9.606293 -9.606293l0 0c2.54776 0 4.99115 1.012085 6.792694 2.8135986c1.8015137 1.8015442 2.8135986 4.244934 2.8135986 6.792694l0 0c0 5.30542 -4.300873 9.606293 -9.606293 9.606293l0 0c-5.3053894 0 -9.606293 -4.300873 -9.606293 -9.606293z" fill-rule="evenodd"/><path fill="#d9d9d9" d="m288.6601 382.13647l0 0c0 -5.3053894 4.3009033 -9.606293 9.606323 -9.606293l0 0c2.5477295 0 4.9911194 1.012085 6.7926636 2.8136292c1.8015442 1.8015137 2.8136292 4.244934 2.8136292 6.7926636l0 0c0 5.30542 -4.3009033 9.606293 -9.606293 9.606293l0 0c-5.30542 0 -9.606323 -4.300873 -9.606323 -9.606293z" fill-rule="evenodd"/><path fill="#d9d9d9" d="m317.52573 382.13647l0 0c0 -5.3053894 4.300873 -9.606293 9.606293 -9.606293l0 0c2.54776 0 4.99115 1.012085 6.792694 2.8136292c1.8015137 1.8015137 2.8135986 4.244934 2.8135986 6.7926636l0 0c0 5.30542 -4.300873 9.606293 -9.606293 9.606293l0 0c-5.30542 0 -9.606293 -4.300873 -9.606293 -9.606293z" fill-rule="evenodd"/><path fill="#d9d9d9" d="m346.3924 324.82416l0 0c0 -5.30542 4.300873 -9.606323 9.606293 -9.606323l0 0c2.54776 0 4.99115 1.0121155 6.792694 2.8136292c1.8015137 1.8015442 2.8135986 4.244934 2.8135986 6.792694l0 0c0 5.3053894 -4.300873 9.606293 -9.606293 9.606293l0 0c-5.30542 0 -9.606293 -4.3009033 -9.606293 -9.606293z" fill-rule="evenodd"/><path fill="#d9d9d9" d="m346.3924 353.48032l0 0c0 -5.30542 4.300873 -9.606293 9.606293 -9.606293l0 0c2.54776 0 4.99115 1.012085 6.792694 2.8135986c1.8015137 1.8015442 2.8135986 4.244934 2.8135986 6.792694l0 0c0 5.30542 -4.300873 9.606293 -9.606293 9.606293l0 0c-5.30542 0 -9.606293 -4.300873 -9.606293 -9.606293z" fill-rule="evenodd"/><path fill="#d9d9d9" d="m375.258 324.82416l0 0c0 -5.30542 4.3009033 -9.606323 9.606323 -9.606323l0 0c2.5477295 0 4.9911194 1.0121155 6.7926636 2.8136292c1.8015442 1.8015442 2.8136292 4.244934 2.8136292 6.792694l0 0c0 5.3053894 -4.3009033 9.606293 -9.606293 9.606293l0 0c-5.30542 0 -9.606323 -4.3009033 -9.606323 -9.606293z" fill-rule="evenodd"/><path fill="#d9d9d9" d="m375.25854 353.48032l0 0c0 -5.30542 4.300873 -9.606293 9.606293 -9.606293l0 0c2.5477295 0 4.99115 1.012085 6.7926636 2.8135986c1.8015442 1.8015442 2.8136292 4.244934 2.8136292 6.792694l0 0c0 5.30542 -4.3009033 9.606293 -9.606293 9.606293l0 0c-5.30542 0 -9.606293 -4.300873 -9.606293 -9.606293z" fill-rule="evenodd"/><path fill="#d9d9d9" d="m346.3924 382.13647l0 0c0 -5.3053894 4.300873 -9.606293 9.606293 -9.606293l0 0c2.54776 0 4.99115 1.012085 6.792694 2.8136292c1.8015137 1.8015137 2.8135986 4.244934 2.8135986 6.7926636l0 0c0 5.30542 -4.300873 9.606293 -9.606293 9.606293l0 0c-5.30542 0 -9.606293 -4.300873 -9.606293 -9.606293z" fill-rule="evenodd"/><path fill="#d9d9d9" d="m375.258 382.13647l0 0c0 -5.3053894 4.3009033 -9.606293 9.606323 -9.606293l0 0c2.5477295 0 4.9911194 1.012085 6.7926636 2.8136292c1.8015442 1.8015137 2.8136292 4.244934 2.8136292 6.7926636l0 0c0 5.30542 -4.3009033 9.606293 -9.606293 9.606293l0 0c-5.30542 0 -9.606323 -4.300873 -9.606323 -9.606293z" fill-rule="evenodd"/></g></svg>